<?xml version="1.0" encoding="utf-8"?>
<!-- Generator: Adobe Illustrator 18.1.1, SVG Export Plug-In . SVG Version: 6.00 Build 0)  -->
<svg version="1.1" id="Layer_1" xmlns="http://www.w3.org/2000/svg" xmlns:xlink="http://www.w3.org/1999/xlink" x="0px" y="0px"
	 viewBox="0 0 792 612" enable-background="new 0 0 792 612" xml:space="preserve">
<path fill="#FFFFFF" d="M128.4,236.4c-2.5-3.2-7.4-5-11.6-6.4c-6.6-2.1-10.5-6.6-9.6-12.6c0.9-6,6-9.8,12.8-9.4
	c8.4,0.5,16.1,3.4,21.4,9.8c6.4,7.8,12.9,16.1,16.9,25.2c6.6,15.3,11.4,31.3,16.6,47.2c1.5,4.5,3.5,6.2,8.2,6.1
	c17.4-0.2,34.7-0.2,52.1,0c4.8,0,6.9-1.5,7.5-6.5c2.8-20.9,5.2-41.8,9.1-62.4c4.9-26.2,10.3-52.3,17.2-78
	c2.6-9.6,8.6-19.1,15.4-26.7c12.6-14.2,32.1-12.5,42.9,3.1c4.9,7,9.3,15,11.3,23.2c5.7,23.1,10.8,46.5,14.6,70
	c3.7,23.1,5.6,46.5,8.3,69.8c0.5,4,0.7,7.6,6.5,7.6c20.8-0.2,41.7-0.1,62.5,0c4.1,0,5.7-1.7,6.1-5.7c1.2-12.5,2.1-25.1,4.1-37.5
	c5.3-32.7,10.3-65.5,17.1-98c2.3-11.1,8.4-22,15-31.4c9.2-13.1,27.3-14.3,38.9-3.2c5.9,5.7,11.3,12.9,14.4,20.5
	c5.2,12.8,9.7,26.2,12.1,39.7c6.4,35.6,11.7,71.5,17.1,107.3c0.9,5.9,2.6,8.7,9.3,8.5c16.5-0.5,33-0.4,49.5,0c5.9,0.1,8-2.2,9.9-7.6
	c6.1-17.8,11.8-35.9,19.8-52.9c4.1-8.8,12-16.3,19.5-22.9c3.9-3.4,5.6-6.1,5.6-11.1c-0.1-56-0.1-112,0-168c0-3.2,0-6.6,0.8-9.7
	c1.3-5.5,6.3-9,11.6-8.2c5.6,0.7,9,4.1,9.7,9.8c0.3,2.4,0.2,4.8,0.2,7.2c0,183.2,0,366.3,0,549.5c0,2.4,0.1,4.8-0.2,7.2
	c-0.7,5.7-4.1,9-9.7,9.7c-5.3,0.7-10.3-2.8-11.6-8.3c-0.7-3.1-0.7-6.4-0.8-9.7c0-74,0-148,0-222c0-11.3-0.2-22.6,0.1-33.9
	c0.2-5.5-1.9-7.3-7.2-7c-4.8,0.3-9.6,0.5-14.3,0c-6.6-0.7-9.5,1.8-11.3,8.3c-3.3,12.3-6.9,24.7-11.9,36.5c-4,9.5-9,19-15.6,26.8
	c-13.4,16-33.8,15.2-46.2-1.5c-5.6-7.5-10.2-16.3-13.3-25.1c-4.3-12.2-7-25-9.9-37.7c-1.1-4.9-3-6.8-8.2-6.7
	c-22.8,0.2-45.6,0.3-68.4,0c-5.7-0.1-7.1,2.2-7.8,7.5c-4.9,37.8-9.8,75.7-15.7,113.4c-2.6,16.7-7,33.2-16.7,47.6
	c-13.3,19.7-34.4,19.9-46.9-0.3c-5.8-9.4-10.1-20.3-13-31c-11.4-42.3-15-85.8-19.6-129.1c-0.6-6.2-2.7-8.1-8.7-8
	c-22.1,0.3-44.3,0.3-66.4,0c-6.2-0.1-8,2.3-9.3,7.9c-3.1,13.3-6.1,26.7-10.7,39.5c-3,8.4-7.6,16.7-13.2,23.7
	c-12.1,14.9-31.3,15.5-44.2,1.4c-5.7-6.3-10.6-13.9-13.8-21.8c-5.9-14.4-10.4-29.4-15.1-44.3c-1.4-4.5-3.4-6.5-8.2-6.3
	c-7.1,0.3-14.3,0.1-21.5,0.1c-4.8,0-9.6,0.2-14.3-0.3c-6.6-0.7-10.6-5.3-10.4-11.2c0.1-6,4.3-10.1,10.9-10.6
	c2.8-0.2,5.6-0.1,8.5-0.1c8.4,0,16.8,0,26.9,0C147,274.5,142.1,253.6,128.4,236.4z M527.7,296.8c4.3,0.1,5.9-1.7,5.2-5.9
	c-6.7-42.3-10.1-85.3-22.3-126.6c-2.2-7.6-5.5-15.1-9.4-22c-4.9-8.7-11.2-8.8-14.9,0.3c-5.3,13-10.5,26.4-12.7,40.1
	c-5.8,35-10,70.3-14.6,105.5c-1.1,8.5-0.6,8.6,8.2,8.7c9.5,0,19.1,0,28.6,0c0,0,0,0,0,0C506.4,296.7,517,296.7,527.7,296.8z
	 M336.2,263.4c-5-32.3-10-64.7-15.7-96.9c-1.4-8-4.8-15.8-8.4-23.2c-4.8-10.1-10.9-10.4-15.9-0.2c-5.2,10.6-10.1,21.9-12.2,33.4
	c-7.1,37.9-12.8,76.1-19.1,114.2c-0.6,3.4-0.1,6,4.4,6c22.3-0.1,44.7-0.1,67-0.1c0.8,0,1.6-0.5,3.2-1
	C338.4,284.9,337.9,274,336.2,263.4z M367.7,351.1c5,32.5,10,65.1,15.9,97.5c1.7,9.2,6.1,18,10.3,26.5c3,6.1,7.1,6.1,9.8,0
	c5-11.5,10.4-23.2,12.5-35.3c6.3-37.8,11.1-75.9,16.3-113.8c0.4-2.9,1.1-6.7-3.7-6.7c-21-0.1-42,0-64.4,0
	C365.6,330.6,366.1,340.9,367.7,351.1z M560.1,319.1c4.4,19.4,7.3,38.5,18.4,54.9c4.5,6.6,10.1,6.6,14.6-0.1
	c4.3-6.4,7.9-13.5,10.7-20.7c4.1-10.7,7.3-21.7,11.3-34C596.1,319.1,578.7,319.1,560.1,319.1z M203.2,372.3
	c5.9,9.1,12.2,8.8,17.8-0.8c9.3-15.8,12.4-33.6,16.5-52.1c-18.2,0-35.7,0-54.4,0C188.2,338.3,192.9,356.4,203.2,372.3z M660.6,249.7
	c-5.1,13.5-9.8,27.2-14.8,40.8c-1.7,4.7,0,6.3,4.7,6.2c22-0.4,17.4,2.9,17.8-16.8c0.3-13.2,0-26.4-0.1-39.6c0-0.3-0.4-0.7-1.2-2
	C664.7,242.5,662.1,245.9,660.6,249.7z"/>
</svg>
