<?xml version="1.0" encoding="utf-8"?>
<!-- Generator: Adobe Illustrator 18.1.1, SVG Export Plug-In . SVG Version: 6.00 Build 0)  -->
<svg version="1.1" id="Layer_1" xmlns="http://www.w3.org/2000/svg" xmlns:xlink="http://www.w3.org/1999/xlink" x="0px" y="0px"
	 viewBox="0 0 792 612" enable-background="new 0 0 792 612" xml:space="preserve">
<g>
	<linearGradient id="SVGID_1_" gradientUnits="userSpaceOnUse" x1="411.776" y1="461.1329" x2="411.776" y2="22.0398">
		<stop  offset="1.973119e-007" style="stop-color:#9CC773"/>
		<stop  offset="1" style="stop-color:#EDCD57"/>
	</linearGradient>
	<path fill="url(#SVGID_1_)" d="M683.6,139.1c0.1-2.8,0.3-4.8,0.3-6.7c0-25.3,0-50.7,0-76c0-10.5-3.4-13.9-13.8-13.9
		c-172.1,0-344.3,0-516.4,0c-10.9,0-14.1,3.2-14.1,14.2c0,25.3,0.1,50.7-0.1,76c0,5,1.3,6.5,6.4,6.5c37.1-0.2,74.2,0,111.3-0.2
		c5.9,0,8.3,1.1,8,7.6c-0.8,14.7,2.6,13.1-13.3,13.2c-34.9,0.1-69.8,0.2-104.6-0.1c-6.2,0-7.8,1.8-7.8,8
		c0.2,86.2,0.1,172.3,0.1,258.5c0,11.3,2.6,13.8,14,13.8c59.6,0,119.2,0,178.8,0c8.4,0,8.5,0,8.4,8.4c0,15.4,0.8,12.5-12.7,12.5
		c-58.8,0.1-117.6-0.3-176.4,0.3c-17.9,0.2-32.7-13.5-32.6-32.7c0.5-124.7,0.5-249.4,0-374.1C119.1,35.7,133.7,22,151.4,22
		c173.6,0.4,347.1,0.4,520.7,0c18.6,0,32.4,14.4,32.3,32.2c-0.5,85.8-0.2,171.5-0.2,257.3c0,8.2,0,8.2-8.2,8.3
		c-11.9,0-11.9,0-11.9-11.9c0-46.6,0-93.3,0-139.9c0-8.2,0-8.2-8.5-8.2c-122.5,0-244.9,0-367.4,0c-13.3,0-10.6-0.2-10.9-10.7
		c0-1.4,0.1-2.9,0-4.3c-0.5-4.7,1.7-6.2,6.1-5.7c1.8,0.2,3.6,0,5.5,0c121.9,0,243.7,0,365.6,0C677.1,139.1,679.9,139.1,683.6,139.1z
		"/>
	<linearGradient id="SVGID_2_" gradientUnits="userSpaceOnUse" x1="536.5062" y1="607" x2="536.5062" y2="271.6249">
		<stop  offset="1.973119e-007" style="stop-color:#9CC773"/>
		<stop  offset="1" style="stop-color:#EDCD57"/>
	</linearGradient>
	<path fill="url(#SVGID_2_)" d="M449.9,588.2c-21.1-21.1-41-41-61.9-61.8c6.9-6.7,14.2-14,21.7-20.9c3.5-3.2,3.5-5.8,2.1-10.4
		c-3-10.4-8.7-14.1-19.3-12.5c-6.1,0.9-12.5,0-18.8,0.2c-3.6,0.1-5-1.3-5-5c0.1-25.5,0.1-51.1,0-76.6c0-4.2,1.9-5.2,5.6-5.1
		c8.9,0.1,17.8-0.1,26.8,0.1c4,0.1,6.1-1.1,7.6-5c5.1-13.4,5.3-13.4-5-23.6c-5.2-5.1-10.6-10-15.1-14.2
		c20.7-20.8,40.7-40.7,61.4-61.4c5.5,5.5,12.5,11.8,18.7,18.9c4.4,5,8.4,6.9,14.3,2.8c1.6-1.1,3.7-1.8,5.6-2.2
		c3.6-0.9,4.7-3.1,4.6-6.6c-0.2-9.1,0.1-18.2-0.1-27.4c-0.1-4.1,1.2-5.8,5.6-5.7c25.1,0.2,50.3,0.2,75.4,0c4.7,0,5.9,1.8,5.8,6.1
		c-0.2,8.9,0,17.8-0.1,26.8c-0.1,3.4,0.8,5.4,4.4,6.8c14,5.4,13.9,5.6,24.6-5.1c4.9-4.9,9.8-9.7,14.8-14.5c0.3-0.2,0.7-0.2,0.5-0.2
		c20,20.1,39.8,40.1,60.4,60.8c-3.3,3.4-7.5,7.6-11.7,11.9c-1.1,1.2-2.3,2.3-3.4,3.4c-10.2,10.3-10.1,10.2-4.9,23.7
		c1.4,3.7,3.5,4.9,7.2,4.8c8.9-0.2,17.8,0.1,26.8-0.1c4.1-0.1,5.7,1.2,5.7,5.6c-0.2,25.1-0.2,50.3,0,75.4c0,4.7-1.7,5.9-6.1,5.8
		c-8.9-0.2-17.8,0.1-26.8-0.1c-3.5-0.1-5.4,1-6.7,4.5c-5.5,13.8-5.6,13.7,4.8,24.1c4.3,4.3,8.5,8.7,12.9,12.9c2.3,2.2,2.9,4,0.3,6.5
		c-18.3,18.1-36.5,36.4-54.6,54.6c-2.4,2.5-4.2,2.3-6.5-0.1c-6.6-6.8-13.5-13.4-20.2-20.3c-2.3-2.3-4.1-3-7.3-1.6
		c-14.1,6.1-14.1,6-14.1,21.6c0,5.9,0.3,11.8-0.2,17.6c-0.1,1.6-2.7,4.1-4.1,4.2c-26,0.3-51.9,0.1-77.9,0.2c-4.1,0-4.5-2.4-4.5-5.5
		c0-9.1-0.1-18.3,0.1-27.4c0.1-3.6-1.2-5.3-4.6-6.7c-13.5-5.5-13.5-5.7-23.7,4.7C459.8,577.4,454.8,583,449.9,588.2z M449.2,558.9
		c6.4-6.5,12.9-13,19.1-19.6c2.3-2.5,4.2-2.6,7.4-1.2c11,5,22.2,9.7,33.5,13.9c4,1.5,5.3,3.3,5.2,7.4c-0.3,7.5,0.1,15-0.1,22.5
		c-0.1,3.7,1.1,5,4.9,4.9c11.5-0.2,23.1-0.2,34.7,0c4.2,0.1,5.2-1.6,5.1-5.4c-0.2-7.3,0.2-14.6-0.1-21.9c-0.2-4.4,1.5-6.2,5.7-7.7
		c11-4,21.8-8.5,32.4-13.4c3.9-1.8,6.1-1.4,8.8,1.5c6,6.5,12.3,12.8,17.7,18.3c11.2-10.9,21.8-21.1,32.8-31.8
		c-6.5-6.2-12.9-12.7-19.6-18.9c-2.5-2.3-2.5-4.2-1.1-7.4c5-11,9.7-22.2,13.9-33.5c1.4-3.6,2.8-5.3,6.8-5.2
		c7.7,0.2,15.4-0.1,23.1,0.1c3.7,0.1,4.9-1.3,4.9-5c-0.2-11.5-0.2-23.1,0-34.7c0.1-4.3-1.8-5.1-5.5-5c-7.5,0.2-15-0.1-22.5,0.1
		c-3.9,0.1-5.4-1.3-6.8-5.1c-4.2-11.3-9-22.5-13.9-33.5c-1.4-3.1-1.5-5,1-7.4c6.8-6.3,13.3-12.9,18.8-18.3
		c-10.8-11.3-20.9-21.8-31.6-32.9c-6.3,6.5-12.4,13.2-19.1,19.4c-1.4,1.3-4.7,1.9-6.5,1.2c-11.7-4.5-23.1-9.6-34.8-14.1
		c-3.5-1.3-4.6-3.1-4.6-6.6c0.2-7.3-0.1-14.6,0.1-21.9c0.1-4.3-1.6-5.7-5.7-5.7c-11.1,0.1-22.3,0.2-33.4,0c-4.3-0.1-5.7,1.7-5.5,5.8
		c0.2,6.7-0.3,13.4,0.2,20.1c0.4,5.6-2,7.4-7,9.1c-10.3,3.5-20.4,7.8-30.1,12.6c-4.2,2-6.7,2.3-9.8-1.3
		c-5.8-6.6-12.1-12.9-17.7-18.8c-11.4,11.3-21.7,21.5-32.4,32.3c6.4,6.3,12.9,12.9,19.6,19.4c2.2,2.2,2.4,3.9,1.1,6.8
		c-5,11.2-9.8,22.6-14.1,34.1c-1.4,3.8-3.2,5-7,4.9c-7.3-0.2-14.6,0.1-21.9-0.1c-3.9-0.1-5.5,1.4-5.4,5.3c0.1,11.3,0.1,22.7,0,34
		c0,3.9,1.5,5.4,5.4,5.3c7.1-0.2,14.2,0.3,21.3-0.1c4.9-0.3,6.4,2,7.9,6.2c3.8,10.4,7.7,20.8,12.7,30.7c2.4,4.8,2,7.4-1.7,10.8
		c-6.3,5.8-12.2,12.1-17.8,17.8C428.2,537.8,438.3,548,449.2,558.9z"/>
	<linearGradient id="SVGID_3_" gradientUnits="userSpaceOnUse" x1="547.6964" y1="120.5565" x2="547.6964" y2="61.1405">
		<stop  offset="1.973119e-007" style="stop-color:#9CC773"/>
		<stop  offset="1" style="stop-color:#EDCD57"/>
	</linearGradient>
	<path fill="url(#SVGID_3_)" d="M547.5,120.4c-34.1,0-68.1-0.1-102.2,0.1c-5.4,0-7.4-1.3-7.3-7.1c0.4-15.4,0.3-30.8,0-46.2
		c-0.1-4.9,1.6-6.2,6.3-6.1c68.9,0.1,137.8,0.1,206.8,0c4.4,0,6.2,1.2,6.1,5.8c-0.2,15.8-0.2,31.6,0,47.4c0.1,4.7-1.6,6.2-6.4,6.2
		C616.5,120.4,582,120.4,547.5,120.4z M547.9,100.2c25.9,0,51.9,0.1,77.8,0c12.4,0,10.6,1.7,10.7-10.5c0.1-8.1,0-8.1-8.3-8.1
		c-52.5,0-105,0-157.5,0c-12.6,0-11.3-2-11.6,11.8c-0.1,5.2,1.3,7,6.8,6.9C493.2,100,520.6,100.2,547.9,100.2z"/>
	<linearGradient id="SVGID_4_" gradientUnits="userSpaceOnUse" x1="196.1491" y1="120.5218" x2="196.1491" y2="61.1526">
		<stop  offset="1.973119e-007" style="stop-color:#9CC773"/>
		<stop  offset="1" style="stop-color:#EDCD57"/>
	</linearGradient>
	<path fill="url(#SVGID_4_)" d="M195.9,120.4c-7.9,0-15.8-0.2-23.7,0.1c-4,0.1-5.9-1.1-5.9-5.4c0.1-16.2,0.1-32.4,0-48.6
		c0-3.8,1.3-5.4,5.3-5.3c16.4,0.2,32.8,0.2,49.3,0c4.1,0,5.2,1.5,5.1,5.4c-0.1,16.2-0.1,32.4,0,48.6c0,3.9-1.2,5.4-5.2,5.3
		C212.5,120.3,204.2,120.4,195.9,120.4z M187,90.5c0.1,10.3-1.2,9.6,7.9,9.6c10.3,0.1,10.3,0,10.3-9.2c0-9.4,0-9.4-9-9.4
		C187,81.5,187,81.5,187,90.5z"/>
	<linearGradient id="SVGID_5_" gradientUnits="userSpaceOnUse" x1="284.1093" y1="120.5055" x2="284.1093" y2="61.1587">
		<stop  offset="1.973119e-007" style="stop-color:#9CC773"/>
		<stop  offset="1" style="stop-color:#EDCD57"/>
	</linearGradient>
	<path fill="url(#SVGID_5_)" d="M284.5,61.2c8.1,0,16.2,0.1,24.3-0.1c3.6-0.1,5,1.2,5,4.9c-0.1,16.4-0.1,32.8,0,49.1
		c0,3.9-1.3,5.3-5.2,5.3c-16.4-0.2-32.8-0.1-49.1,0c-3.6,0-5-1.2-5-4.9c0.1-16.4,0.1-32.8,0-49.1c0-3.9,1.2-5.4,5.2-5.3
		C267.9,61.4,276.2,61.2,284.5,61.2z M293.1,99.7c0.1-2.3,0.3-3.9,0.3-5.5c-0.4-14.7,2.9-12.4-13.4-12.8c-4.1-0.1-5.3,1.6-5.2,5.4
		c0.3,16-2,12.9,13,13.2C289.4,100.2,291,99.9,293.1,99.7z"/>
	<linearGradient id="SVGID_6_" gradientUnits="userSpaceOnUse" x1="275.3004" y1="363.3854" x2="275.3004" y2="236.4934">
		<stop  offset="1.973119e-007" style="stop-color:#9CC773"/>
		<stop  offset="1" style="stop-color:#EDCD57"/>
	</linearGradient>
	<path fill="url(#SVGID_6_)" d="M295,239.5c-2.2,14.2-4.3,27.7-6.4,41.2c-3.8,24.3-7.7,48.7-11.6,73c-0.3,2-0.9,4-1,6
		c-0.3,3.2-1.9,4.1-4.9,3.5c-3.4-0.7-6.8-1.8-10.1-1.7c-5.5,0.1-5.8-3-5.1-7.1c5.5-34.3,10.9-68.6,16.4-102.9
		c0.6-3.6,1.4-7.2,1.7-10.8c0.3-3.5,2-4.6,5.2-4.1C284,237.5,289,238.4,295,239.5z"/>
	<linearGradient id="SVGID_7_" gradientUnits="userSpaceOnUse" x1="213.7156" y1="347.3125" x2="213.7156" y2="251.8503">
		<stop  offset="1.973119e-007" style="stop-color:#9CC773"/>
		<stop  offset="1" style="stop-color:#EDCD57"/>
	</linearGradient>
	<path fill="url(#SVGID_7_)" d="M244.6,265.8c-11.9,11.6-23.2,22.7-35,34.3c11.8,11.4,23.4,22.5,35.2,33.9
		c-5.8,5.4-10.5,9.8-14.3,13.4c-15.7-15.7-32-32.1-47.9-47.9c15.2-15.2,31.5-31.4,47.6-47.5C234.4,255.9,239.1,260.4,244.6,265.8z"
		/>
	<linearGradient id="SVGID_8_" gradientUnits="userSpaceOnUse" x1="337.1459" y1="348.1478" x2="337.1459" y2="252.53">
		<stop  offset="1.973119e-007" style="stop-color:#9CC773"/>
		<stop  offset="1" style="stop-color:#EDCD57"/>
	</linearGradient>
	<path fill="url(#SVGID_8_)" d="M304.6,335.8c12.7-12.6,24.1-23.8,35.8-35.4c-1.9-2.1-3.2-3.8-4.7-5.3c-8.9-8.9-17.7-17.9-26.7-26.6
		c-2.8-2.7-3-4.4-0.2-7.4c10.9-11.3,10.8-11.4,22-0.2c11.3,11.3,22.6,22.6,33.9,33.9c1.5,1.5,3,3.2,4.8,5.1
		c-1.6,1.8-2.9,3.4-4.3,4.8c-13.4,13.5-27.1,26.8-40.3,40.5c-4,4.2-6.5,3.9-10.1-0.2C312.2,341.8,308.7,339.3,304.6,335.8z"/>
	<linearGradient id="SVGID_9_" gradientUnits="userSpaceOnUse" x1="536.5279" y1="527.7764" x2="536.5279" y2="350.9876">
		<stop  offset="1.973119e-007" style="stop-color:#9CC773"/>
		<stop  offset="1" style="stop-color:#EDCD57"/>
	</linearGradient>
	<path fill="url(#SVGID_9_)" d="M536.4,527.8c-48.2-0.1-88.3-40.2-88.2-88.4c0-48.1,40.2-88.3,88.3-88.4c48.5,0,88.6,40.2,88.5,88.8
		C624.8,487.9,584.7,527.8,536.4,527.8z M603.8,439.4c0-37.4-29.7-67.3-66.9-67.3c-37.6,0-67.6,29.8-67.6,67.3
		c0,37.3,29.7,67.2,67,67.2C574,506.7,603.8,477.1,603.8,439.4z"/>
</g>
</svg>
