<svg xmlns="http://www.w3.org/2000/svg" viewBox="0 0 841.9 595.3" xml:space="preserve"><linearGradient id="a" gradientUnits="userSpaceOnUse" x1="201.713" y1="492.087" x2="606.896" y2="86.903"><stop offset="0" style="stop-color:#9cc773"/><stop offset="1" style="stop-color:#edcd57"/></linearGradient><path fill="url(#a)" d="M474.2 187.8c2.2-1.2 3.3.2 4.3 1.8 3.8 5.7 9.4 8.8 15.7 10.8 7.3 2.4 13.6 6.5 19.5 11.4 2.9 2.5 5.7 4.3 10 4.5 3.4.2 7.3 1.2 10.5 2.3 7.3 2.5 14.6 1 21.9 1.8 3.4.3 5.1-1.5 5.1-5.5 0-5.4-.1-10.8-.8-16.1-1.7-13.6 2.9-24.9 11.1-35.4 6.8-8.7 14.9-16 23.5-22.8 6.4-5 14.3-6.1 22.1-6.9 4.7-.5 9.3-.9 14-1.2 4.7-.4 9.2.1 13.8 1.8 7.8 3 15.5 5.8 21.4 12 2.6 2.7 5.1 5.6 7.6 8.4 2 2.4 4.1 4.7 5.9 7.3 1.5 2.2 3.1 4.5 3.8 7 2.3 7.5 4.2 15.1 6.1 22.7.5 2.1.2 4.4.1 6.6-.1 2.7-.8 5.4-.5 8 1.2 11.2-3.2 20.4-8.9 29.5-5 7.8-10.2 15.4-18.6 19.8-11.5 6.1-23.3 10.9-37 9.4-9.1-1-18.2-1.2-27.3 1.4-7.8 2.2-15.7.2-22.9-2.8-6.9-2.8-10.3-9.3-11.5-16.4-1-5.3-3.8-8.8-7.9-11.8-2-1.5-3.9-3.1-5.6-4.7-3.2-3-6.9-4.7-11.4-5.1-4.1-.4-8.2-1.5-12.9-2.5.4 1.7.4 3.2 1.1 4.1 3.2 4.1 4.4 9.2 6.7 13.6 3.9 7.4 3.9 15.5 6.4 23.1 1.6 4.8.3 9.4-1.4 13.7-1.8 4.5-4.8 8.5-6.7 13-4.1 9.3-12.4 16.5-14.4 27-.2 1-.9 2.1-1.6 2.9-7.3 9.8-4.9 20.9-3.9 31.6.6 6.1 4.6 10.5 10 13.5 2.6 1.4 5.3 3 4.2 6.7-1 3.3-3.5 5.1-7.1 5-.7 0-1.3.1-2 .1-7.9.4-9.2 3.2-4.9 10.1 3.1 4.9 6.5 9.6 9.5 14.5 1.8 3 3 6.5 4.6 9.7 1.6 3.2 3.1 6.4 5.1 9.3 3.8 5.6 3.5 9.1-1.2 14.2-2.3 2.6-4 5.8-6 8.6-4 5.4-8.1 10.6-12 16-1.7 2.3-3 4.9-4.3 7.4-.7 1.4-.8 3.1-1.6 4.4-3.4 4.8-5.5 9.5-1.3 15.1 1.7 2.3.1 4.8-2.3 6.2-1.7 1-3.7 1.7-5.6 2-6.1.8-9.5 4.5-11.4 9.9-2.1 5.9-4.3 11.7-6.4 17.6-2.8 8.1-7.2 12.1-15.7 11.9-11-.3-15.8 5.6-18.2 15.8-1.1 4.6-1.3 9.1-.3 13.9 1.5 7.5-1.3 10.2-9.1 9.8-6.1-.3-7.7 1.6-6 7.6.6 2.1 1.6 4.2 2.3 6.3.6 1.9 1.6 3.9 1.4 5.8-.2 2-1 4.7-2.5 5.6-2.6 1.5-4.4-.8-5.7-3.1-1.7-2.9-3.2-5.9-5.1-8.7-2.9-4.2-4.6-4.8-9.6-3.4-6.5 1.9-11.7 1.4-15.6-5.1-2.3-3.9-8.4-5-13.3-3-2.3.9-4.5 2.1-6.6 3.3-5.7 3.4-11 2.5-16.3-1.2-3.1-2.2-6.4-4-9.5-6.2-4.9-3.4-9.9-3-15.2-1.1-1.9.7-4.5.9-6.3.1-7.6-3-14.9-1.7-22.3.9-3.4 1.2-6.7 2.6-10.1 3.5-6.9 1.8-12.6-.5-15.5-6-3-5.6-1.7-12.5 3.3-17.1.7-.6 1.4-1.2 2.2-1.6 5.3-2.4 6.8-6.7 6.1-12.1-.1-1.1-.1-2.2.1-3.3.4-2.6 1.5-4.7 4.4-5.1 4.5 5.1 4.2 7.2-2.1 16.3 1.2 1.7 2.5 3.7 4 5.5 2.7 3.2 5.7 6.2 8.4 9.5 2.3 2.8 4.7 3.9 8.2 2.3 2-.9 4.3-1.4 6.2-2.6 4-2.6 8.3-2.9 12.8-3.1 2.3-.1 4.8-1 6.8-2.1 2.1-1.2 3-3.6 2-5.9-2.2-4.8-3.7-10.2-8.8-13.1-1.3-.8-2.7-1.7-3.7-2.9-6.7-7.9-15.8-10.5-25.6-11.7-1.1-.1-2.4.2-3.3-.3-8.3-4.8-18.1-5-26.8-8.3-22.1-8.4-35.2-29.1-31.1-52.4 2.1-11.6 5.4-23 7.7-34.6 1.5-7.4 2.4-15 3.2-22.5.5-5.1-.7-6.4-5.6-7.4-2.4-.5-4.9-.4-7.3-.7-3.3-.5-6.7-1-9.8-2.1-3.2-1.2-5-5.1-4.3-8.3.7-3.4 3.3-4.5 6.4-4.9 5.1-.6 9.7.6 13.8 3.8 5.5 4.1 13.4 3 18-2.1 2-2.2 1.8-4.4.3-6.7-1.7-2.6-3.8-5.1-4.8-8-3.9-11.6-4-23.1.4-34.7 1.2-3.3 2.1-6.8 2.5-10.3.2-1.3-1.2-3.7-2.3-4-3.6-1-7.5-2.1-11.1-1.6-11.9 1.4-23.4-.6-34-5.5-9.2-4.3-17.9-9.9-26.5-15.5-3-2-4.8-5.8-7.2-8.8-5.6-7.2-11.9-13.7-15-22.7-5.4-16-6.1-31.9-1.8-48.1 1.9-7.3 3.8-14.7 6.6-21.7 3.4-8.8 8.2-16.8 15.3-23.3 2.8-2.5 5-5.7 7.4-8.6 6.3-7.6 26.9-20.6 36.4-22.8 7.8-1.7 15.7-4.2 23.6-4.4 21.7-.5 42.4 3.1 58.7 19.4 4.6 4.6 9.3 8.9 13.7 13.7 4.5 4.9 7.1 10.8 7.7 17.5.3 4.1 2.1 7.3 5 9.9 3.6 3.3 7.3 6.5 11 9.8 6.6 5.9 11.2 12.5 8.6 22.1-.4 1.6.2 3.5.5 5.3.3 1.8.7 3.5.9 5.3.1.6-.3 1.3-.5 2.1-3 .8-4.2-1.2-4.7-3.3-1.6-6.6-5.8-11.5-9.7-16.7-.9-1.2-3.1-2.8-3.9-2.4-1.3.5-2.6 2.5-2.8 4-.8 6.2-1.3 12.5 4.2 17.3.4.4.4 1.2.6 1.9-2.9.4-6.5-1.7-8.7 1.6-5.2 7.5-7.2 16.4-11.2 25.1 4.5.9 7.9 1.6 11.4 2.2 6.2 1.1 10.4-2.3 13.5-6.9 2.7-3.9 2.3-8.4-.1-12.6-1.7-3.1-3.3-6.3-4.9-9.4 2.8 1.8 5.5 3.6 8.9 5.7 1.5-.5 3.5-1.1 5.6-1.8 4.2 2 6.9 5.1 8.6 9.6 1.6 4.3 5.2 6.6 10 6.5 4.8-.1 8.8-1.7 10.8-6.4.4-1 .9-2.1 1.2-3.1.8-2.7 2.6-4.2 5.5-3.9 6.5.7 9.9-3.1 12.5-8.2.6-1.2 1-2.5 1.6-3.7 1.6-3.5 4-6.2 7.2-8.6 5.5-4.1 10.7-8.7 15.7-13.4 9.6-9.1 20.9-14 34.1-15.2 3-.3 5.9-1.2 9.8-2-1.3-1.9-1.8-3.4-2.8-3.8-6.9-2.7-11.5-8.3-16.7-13.1-5.3-4.8-10.6-9.6-15.7-14.6-3.9-3.8-6.5-8-3.5-13.7 1.8-3.5-.7-6-2.5-8.4-2.2-3-5.1-5.7-6.8-8.9-1.8-3.2-2.5-7-4-11.4 1.4.7 2.2 1 3 1.4.2.1.2.4.4.5 10.2 6.3 10.8 18.4 16.7 27.3 4 6.1 8.4 12 13.3 17.5 4.4 5 8.1 10.7 14.5 13.6 1.2.7 1.9 2.9 2.9 4.4.2.1.3.3.4.5-.1-.2-.2-.4-.4-.5zM305.9 376.2c3.7-9.3 2.7-17.8-2.9-26.1-2.7-4-4.6-8.6-7-12.9-1.2-2.1-2.5-4.2-3.9-6.1-5.5-7.3-13.9-7.4-21.8-8.3-1.2-.1-3.3 1.4-3.9 2.7-1.6 3.1-1.7 6.2.3 9.5 1.8 3 3.4 6.3 4.1 9.7 1.5 7.8 2.7 15.8 3.6 23.7 1.1 10 8.9 15.4 18.5 12.3 4.1-1.3 8.3-2.8 13-4.5zm111.7 191.7c-4.9-5.5-3.4-11.6-2.2-17.8.3-1.5.6-3.1.6-4.6 0-3.6-2.5-6.4-6.1-6.8-1.5-.2-3.1.1-4.6.5-8.5 2-17 3.8-25.4 6.1-2.5.7-4.9 2.1-6.9 3.8-3.8 3.2-8.1 6.2-12.3 7.7-.3.1-.3.8-.5 1.2.8 2.8 3.1 2.4 5.3 2.7 2.3.3 4.8.9 6.8 2.1 9.1 5.5 18.7 8.2 29.4 6.5 2.5-.4 5.3.3 7.9.8 2.7.4 5.3 1.3 8-2.2zm-85.9-283c0-4.2-.6-6.7-3.6-8-2.9-1.2-6.3-2.6-8.8 0-3 3.1-5.8 6.8-7.8 10.6-1.7 3.4 1 7.7 4.4 7 4.7-.9 9.2-2.8 13.5-5.1 1.6-.8 1.9-3.7 2.3-4.5zm229.2-56.3c-.6-.1-1.3-.2-1.9-.3v3.9c.5 0 .9.1 1.4.1.1-1.2.3-2.4.5-3.7z"/><linearGradient id="b" gradientUnits="userSpaceOnUse" x1="328.971" y1="107.803" x2="363.949" y2="72.825"><stop offset="0" style="stop-color:#9cc773"/><stop offset="1" style="stop-color:#edcd57"/></linearGradient><path fill="url(#b)" d="M343.7 65.5c12.1-.2 25.2 5.2 26.2 23 .9 16.1-6.7 24.5-21.7 26.6-12.3 1.7-26.2-9.9-26.4-22.2-.1-14.2 6.2-24.9 21.9-27.4z"/><linearGradient id="c" gradientUnits="userSpaceOnUse" x1="551.335" y1="404.462" x2="569.142" y2="386.655"><stop offset="0" style="stop-color:#9cc773"/><stop offset="1" style="stop-color:#edcd57"/></linearGradient><path fill="url(#c)" d="M533.2 383.8c4.7-2.6 8.7-2.2 11.4 1.4 5.8 7.7 13.3 8.9 22.1 7.2 6-1.1 12.5 2.6 15.4 8.5 1.4 2.8 2.2 5.8 3.2 8.5-5.4 4.7-10.9 5.2-16.1 1.4-1.9-1.4-3.9-3.3-4.9-5.4-3.9-8-10.9-10.9-18.9-12-4.4-.6-8.2-2.3-10.8-5.9-.7-.9-.8-2.1-1.4-3.7z"/><linearGradient id="d" gradientUnits="userSpaceOnUse" x1="684.036" y1="476.106" x2="698.841" y2="461.301"><stop offset="0" style="stop-color:#9cc773"/><stop offset="1" style="stop-color:#edcd57"/></linearGradient><path fill="url(#d)" d="M703.3 478.5c0 3.9-1.7 5.7-4.5 5.7-2.3-.1-4.9-.8-6.9-2-3.4-2.1-6.6-4.6-9.4-7.5-1.6-1.6-3-4.1-3.1-6.2-.2-4.2.5-8.4 1.2-12.6.5-3.1 3.6-4.6 6.8-3.1 5.9 2.9 11.2 6.4 12.7 13.6 1 4.3 2.3 8.6 3.2 12.1z"/><linearGradient id="e" gradientUnits="userSpaceOnUse" x1="688.103" y1="448.433" x2="696.745" y2="439.79"><stop offset="0" style="stop-color:#9cc773"/><stop offset="1" style="stop-color:#edcd57"/></linearGradient><path fill="url(#e)" d="M688.1 437.1c6.4.1 11 3.5 12 7.8.6 2.5-.2 4.4-2.6 5.4-3.2 1.4-6.1.6-8.7-1.5-2.8-2.2-4.9-5-4.1-8.5.4-1.5 2.8-2.6 3.4-3.2z"/><linearGradient id="f" gradientUnits="userSpaceOnUse" x1="438.222" y1="42.727" x2="446" y2="34.95"><stop offset="0" style="stop-color:#9cc773"/><stop offset="1" style="stop-color:#edcd57"/></linearGradient><path fill="url(#f)" d="M438.3 30.6c7.5 1.8 11.3 7.3 9.6 13.4-.9 3.1-2.5 3.9-5.4 2.3-5.4-2.9-7-8.6-4.2-15.7z"/><linearGradient id="g" gradientUnits="userSpaceOnUse" x1="696.163" y1="165.107" x2="705.587" y2="155.683"><stop offset="0" style="stop-color:#9cc773"/><stop offset="1" style="stop-color:#edcd57"/></linearGradient><path fill="url(#g)" d="M707.5 161c0 3.4-2.9 6-6.6 5.9-3.9-.1-6.6-2.9-6.6-6.8.1-3.8 2.4-6.1 6.3-6.2 4.3-.1 6.9 2.6 6.9 7.1z"/><linearGradient id="h" gradientUnits="userSpaceOnUse" x1="270.829" y1="73.27" x2="278.076" y2="66.023"><stop offset="0" style="stop-color:#9cc773"/><stop offset="1" style="stop-color:#edcd57"/></linearGradient><path fill="url(#h)" d="M269.4 69.8c-.1-2.7 2.1-4.9 5.1-5 2.9-.1 5.2 2.1 5.2 4.9 0 2.6-2.5 5-5.2 5.2-2.7 0-4.9-2.2-5.1-5.1z"/><linearGradient id="i" gradientUnits="userSpaceOnUse" x1="591.836" y1="414.246" x2="598.15" y2="407.932"><stop offset="0" style="stop-color:#9cc773"/><stop offset="1" style="stop-color:#edcd57"/></linearGradient><path fill="url(#i)" d="M589.3 409.9c4.3-2.6 7.8-2.3 11.3.5-.5 3.5-2.7 4.4-5.6 4.5-2.9.1-4.8-1.4-5.7-5z"/><linearGradient id="j" gradientUnits="userSpaceOnUse" x1="420.151" y1="-1.37" x2="424.519" y2="-5.738"><stop offset="0" style="stop-color:#9cc773"/><stop offset="1" style="stop-color:#edcd57"/></linearGradient><path fill="url(#j)" d="M424.3 2c-5.5-3.9-6.1-5.1-4.7-10.4 5.7 1.4 7.1 4.6 4.7 10.4z"/><linearGradient id="k" gradientUnits="userSpaceOnUse" x1="282.727" y1="108.491" x2="285.982" y2="105.236"><stop offset="0" style="stop-color:#9cc773"/><stop offset="1" style="stop-color:#edcd57"/></linearGradient><path fill="url(#k)" d="M284.5 110.3c-1.2-1.9-2.4-3-2.6-4.2-.1-.7 1.5-1.6 2.3-2.5 1 1 2.3 1.9 2.7 3.1.3.7-1.1 1.9-2.4 3.6z"/><linearGradient id="l" gradientUnits="userSpaceOnUse" x1="432.503" y1="25.601" x2="435.529" y2="22.575"><stop offset="0" style="stop-color:#9cc773"/><stop offset="1" style="stop-color:#edcd57"/></linearGradient><path fill="url(#l)" d="M430.8 23.9c1.4-1.3 2.7-2.9 3-2.8 1.3.8 2.3 2.1 3.4 3.2-.8.8-1.8 2.3-2.5 2.2-1.3-.2-2.3-1.4-3.9-2.6z"/><linearGradient id="m" gradientUnits="userSpaceOnUse" x1="265.438" y1="517.08" x2="267.488" y2="515.029"><stop offset="0" style="stop-color:#9cc773"/><stop offset="1" style="stop-color:#edcd57"/></linearGradient><path fill="url(#m)" d="M266.2 517.8c-.4-.8-1.1-1.5-.9-1.9.2-.6 1-1.1 1.5-1.6.4.5 1 1 1 1.4 0 .6-.7 1-1.6 2.1z"/><linearGradient id="n" gradientUnits="userSpaceOnUse" x1="526.441" y1="379.027" x2="527.987" y2="377.48"><stop offset="0" style="stop-color:#9cc773"/><stop offset="1" style="stop-color:#edcd57"/></linearGradient><path fill="url(#n)" d="M528.8 378.3c-.7.6-1.2 1.3-1.6 1.2-.4 0-1.2-.8-1.1-1.2 0-.5.7-1.2 1.2-1.3.3-.1.8.7 1.5 1.3z"/><linearGradient id="o" gradientUnits="userSpaceOnUse" x1="419.653" y1="118.967" x2="420.718" y2="117.902"><stop offset="0" style="stop-color:#9cc773"/><stop offset="1" style="stop-color:#edcd57"/></linearGradient><path fill="url(#o)" d="M421.2 118.4c-.3.5-.5.8-.7 1.2-.5-.3-1-.6-1.3-1.1-.1-.1.3-.7.5-1l1.5.9z"/><linearGradient id="p" gradientUnits="userSpaceOnUse" x1="537.833" y1="429.63" x2="538.723" y2="428.74"><stop offset="0" style="stop-color:#9cc773"/><stop offset="1" style="stop-color:#edcd57"/></linearGradient><path fill="url(#p)" d="M539.1 429.1c-.2.4-.4.7-.6 1.1-.4-.4-.8-.7-1.2-1.1.3-.3.6-.7.9-.7.3 0 .6.4.9.7z"/><linearGradient id="q" gradientUnits="userSpaceOnUse" x1="407.565" y1="603.561" x2="408.12" y2="603.005"><stop offset="0" style="stop-color:#9cc773"/><stop offset="1" style="stop-color:#edcd57"/></linearGradient><path fill="url(#q)" d="M407.6 603.6c-.1-.1-.1-.3-.2-.4.2 0 .5-.1.7-.1 0 .2 0 .4-.1.5h-.4z"/></svg>