<?xml version="1.0" encoding="utf-8"?>
<!-- Generator: Adobe Illustrator 18.1.1, SVG Export Plug-In . SVG Version: 6.00 Build 0)  -->
<svg version="1.1" id="Layer_1" xmlns="http://www.w3.org/2000/svg" xmlns:xlink="http://www.w3.org/1999/xlink" x="0px" y="0px"
	 viewBox="0 0 792 612" enable-background="new 0 0 792 612" xml:space="preserve">
<g>
	<linearGradient id="SVGID_1_" gradientUnits="userSpaceOnUse" x1="404.7554" y1="600.4083" x2="404.7554" y2="21.9865">
		<stop  offset="1.973119e-007" style="stop-color:#9CC773"/>
		<stop  offset="1" style="stop-color:#EDCD57"/>
	</linearGradient>
	<path fill="url(#SVGID_1_)" d="M431.3,23.9c46.8,0,93.6-0.3,140.5,0.1c27.8,0.2,55.6,1.4,83.4,2.3c25.2,0.7,46.2,21.8,46.3,49
		c0,53.9-1.1,107.9-2,161.8c-0.3,19.8-1,39.7-1.5,59.5c-1.4,49.6-2.5,99.2-4.3,148.8c-1.1,31.9-3.2,63.7-5.1,95.6
		c-0.5,7.9-1.1,16-2.8,23.7c-2.9,13.4-11.9,22.2-23.8,28.1c-12.1,6-25.3,7.6-38.4,7.6c-70.6,0.2-141.1,0.1-211.7-0.3
		c-36.5-0.2-72.9-1.2-109.4-2.2c-38.2-1.1-76.3-2.5-114.5-4c-8.6-0.3-17.2-1.2-25.7-2.9c-29.7-5.8-46.4-22.9-51.8-52.9
		c-1.7-9.5-2.7-19.2-2.7-28.9c-0.2-133.4-0.2-266.7,0.1-400.1c0-18.9,1.7-37.9,3.9-56.7c1.8-16,5.9-19.8,21.9-22.3
		c14.9-2.3,29.9-4.4,44.9-4.9c44-1.5,88-2.4,132-2.9c40.1-0.5,80.3-0.1,120.4-0.1C431.3,22.7,431.3,23.3,431.3,23.9z M402.9,174.5
		c0,0.3,0,0.7,0,1c-17.7,0-35.4-0.1-53.1,0c-70.6,0.3-141.1,0.7-211.7,1.1c-10,0.1-10,0.1-10,10.3c0,108.3-0.1,216.7,0.1,325
		c0,9.6,1.7,19.3,3.9,28.7c4.1,17.5,15.7,27.9,33.5,30.7c8.5,1.3,17.1,2.3,25.7,2.7c36.6,1.5,73.3,2.9,109.9,3.9
		c44,1.2,88,2.3,132,2.6c62.4,0.4,124.7,0.3,187.1-0.1c9.4,0,19-1.5,28-3.9c11.6-3.1,18.6-10.8,19.3-23.7
		c1.4-25.2,3.9-50.3,4.8-75.5c1.8-53.3,3.1-106.5,3.9-159.8c0.7-44.4,0.4-88.9,0.6-133.4c0-9.6,0-9.6-9.3-9.6
		C579.4,174.5,491.2,174.5,402.9,174.5z M681.7,154.4c0-19.2,0.1-37.3-0.1-55.4c-0.1-9.9-0.1-19.9-1.4-29.7
		c-1.6-12.8-12.8-22.7-25.1-23.1c-30.6-1-61.2-2.1-91.9-2.5c-57-0.8-113.9-1.7-170.9-1.4c-71.2,0.3-142.4,1.5-213.6,2.8
		c-13.1,0.2-26.1,2.5-39.2,3.7c-5,0.5-7.9,2.5-8.3,7.9c-0.4,5.6-1.8,11.1-1.9,16.7c-0.6,24.4-1,48.7-1.3,73.1
		c-0.1,9.6,0,9.6,9.4,9.5c73.2-0.4,146.3-0.9,219.5-1.1c105.3-0.3,210.6-0.4,316-0.5C675.6,154.4,678.1,154.4,681.7,154.4z"/>
	<linearGradient id="SVGID_2_" gradientUnits="userSpaceOnUse" x1="408.9612" y1="119.7463" x2="408.9612" y2="89.5411">
		<stop  offset="1.973119e-007" style="stop-color:#9CC773"/>
		<stop  offset="1" style="stop-color:#EDCD57"/>
	</linearGradient>
	<path fill="url(#SVGID_2_)" d="M255.3,89.6c-25.9,0-51.8,0.1-77.7,0c-4.6,0-8.6,0.8-11,5.2c-3.9,7.2,1.4,14.7,11,14.7
		c51.6,0.1,103.2,0.1,154.7,0c7.8,0,12.4-4,12.4-10.2c0-6.4-4.2-9.7-12.4-9.7C306.6,89.6,280.9,89.6,255.3,89.6z M457.4,99.7
		c-8.8,0-17.6-0.2-26.4,0.1c-5.8,0.2-9.2,3.5-9.4,9.4c-0.2,5.9,3.2,9.8,8.8,10c17.4,0.4,34.8,0.5,52.2,0.1c5.9-0.1,9.9-5.4,9.3-10.4
		c-0.8-5.6-4.1-9-9.9-9.1C473.7,99.6,465.6,99.7,457.4,99.7z M537.1,99.6C537.1,99.6,537.1,99.7,537.1,99.6
		c-8.2,0.1-16.4-0.1-24.5,0.2c-6.8,0.2-10.7,3.9-10.8,9.5c-0.1,5.5,3.9,10,10.3,10.2c16.6,0.4,33.1,0.4,49.7,0
		c6.6-0.1,10.5-4.5,10.4-10.1c0-5.6-3.8-9.4-10.6-9.7C553.5,99.3,545.3,99.6,537.1,99.6z M618,119.6C618,119.6,618,119.6,618,119.6
		c8.2,0,16.4,0.3,24.5-0.2c6.6-0.4,10.3-4.5,10.1-10.2c-0.1-5.5-3.6-9.3-10.1-9.4c-17-0.3-34-0.2-50.9,0.3c-2.7,0.1-6.1,2.4-7.7,4.7
		c-4.4,6.3,0.3,14.2,9,14.8C601.2,120,609.6,119.6,618,119.6z"/>
	<linearGradient id="SVGID_3_" gradientUnits="userSpaceOnUse" x1="402.5759" y1="540.7328" x2="402.5759" y2="409.6006">
		<stop  offset="1.973119e-007" style="stop-color:#9CC773"/>
		<stop  offset="1" style="stop-color:#EDCD57"/>
	</linearGradient>
	<path fill="url(#SVGID_3_)" d="M402.8,409.6c61.9,0,123.8,0,185.8,0c19.3,0,33.6,11.3,37.5,29.2c0.6,2.7,0.6,5.6,0.6,8.4
		c0.1,18.3,0,36.7,0,55c0,22.3-14.5,37.4-36.7,38.4c-1.3,0.1-2.6,0-3.9,0c-122.3,0-244.7,0.1-367-0.2c-7.3,0-15.1-1.8-21.7-4.9
		c-10.9-5.2-17.8-14.8-18.2-27.1c-0.7-21.5-1.4-43.2-0.2-64.6c1.2-21.3,16.6-34.1,38-34.2C279,409.6,340.9,409.6,402.8,409.6z
		 M402.3,520.1c38.2,0,76.4,0,114.6,0c23.5,0,47,0.1,70.5,0c13.9,0,19.2-5.5,19.3-19.2c0-18.1,0.1-36.2,0-54.4
		c-0.1-8.7-4.5-14.2-12.9-16.1c-2.7-0.6-5.5-0.7-8.3-0.7c-121.7,0-243.4,0-365,0c-3.2,0-6.5,0.3-9.6,1c-7.3,1.8-11.5,6.8-11.6,14.3
		c-0.2,20.1-0.2,40.1,0,60.2c0.1,8.6,5.7,14,14.1,14.7c2.8,0.2,5.6,0.2,8.4,0.2C281.9,520.1,342.1,520.1,402.3,520.1z"/>
	<linearGradient id="SVGID_4_" gradientUnits="userSpaceOnUse" x1="553.2869" y1="354.4156" x2="553.2869" y2="238.27">
		<stop  offset="1.973119e-007" style="stop-color:#9CC773"/>
		<stop  offset="1" style="stop-color:#EDCD57"/>
	</linearGradient>
	<path fill="url(#SVGID_4_)" d="M552.9,354.4c-13.4,0-26.7,0-40.1,0c-25.2-0.1-42.3-15.2-44-40.3c-0.9-13.5-0.5-27.2,0.7-40.7
		c1.8-19.8,19.2-34.8,39.2-34.9c28.5-0.1,56.9,0.7,85.4-0.3c19.3-0.6,41.7,11.9,43.6,38.5c1,13.9,0.9,28.1-0.6,41.9
		c-2.3,21.2-19.3,35.2-40.8,35.7c-0.4,0-0.9,0-1.3,0C580.9,354.4,566.9,354.4,552.9,354.4z M553.1,334.2c13.8,0,27.6,0.2,41.4,0
		c14.8-0.2,22.8-8.2,23.1-22.8c0.2-11,0.3-22-0.2-33c-0.5-12.2-8.7-19.8-20.9-19.8c-28.7-0.1-57.4-0.1-86,0c-13,0-21,7.9-21.3,20.8
		c-0.3,10.3-0.1,20.7-0.1,31c0.1,15.8,8,23.7,23.9,23.9C526.3,334.3,539.7,334.2,553.1,334.2z"/>
	<linearGradient id="SVGID_5_" gradientUnits="userSpaceOnUse" x1="354.9957" y1="361.5556" x2="354.9957" y2="236.0084">
		<stop  offset="1.973119e-007" style="stop-color:#9CC773"/>
		<stop  offset="1" style="stop-color:#EDCD57"/>
	</linearGradient>
	<path fill="url(#SVGID_5_)" d="M358.7,279.9c8.4-10.8,16.1-20.9,24.1-30.7c3.1-3.8,6.8-7.2,10.5-10.4c4.8-4.2,9.6-3.1,13.9,0.9
		c4.1,3.8,4.6,9.1,1,14c-3.7,5-8,9.6-11.8,14.6c-6.6,8.5-12.8,17.3-19.5,25.8c-2.8,3.5-3,6-0.2,9.6c9.6,12.4,18.9,25.1,28.5,37.6
		c5.2,6.8,5.5,12.6,0.6,17.2c-4.9,4.6-11.7,4.6-17.2-1.6c-7.5-8.5-14-18-20.9-27c-3.2-4.3-6.4-8.7-10.1-13.7
		c-2.1,2.2-3.8,3.9-5.5,5.8c-10.4,11.2-20.5,22.7-31.3,33.6c-2.7,2.7-7.6,4.9-11.2,4.5c-3.3-0.3-7.2-3.9-9-7.1
		c-2.5-4.3-0.2-8.7,3.2-12.2c11.6-12.5,23-25.2,34.7-37.5c4.1-4.3,4.5-7.2,0.3-11.8c-10.7-11.8-20.8-24.1-31.2-36.2
		c-4.1-4.7-4.4-10.1-0.7-14.7c3.7-4.6,9.2-5.9,14.4-2.3c4.7,3.3,9.2,7.2,12.9,11.6C342.4,259.2,350.1,269.3,358.7,279.9z"/>
	<linearGradient id="SVGID_6_" gradientUnits="userSpaceOnUse" x1="239.8656" y1="360.7491" x2="239.8656" y2="238.6524">
		<stop  offset="1.973119e-007" style="stop-color:#9CC773"/>
		<stop  offset="1" style="stop-color:#EDCD57"/>
	</linearGradient>
	<path fill="url(#SVGID_6_)" d="M211,264.2c0,11.8-0.4,23.7,0.2,35.5c0.4,7.6,1.9,15.3,3.7,22.8c2,8.1,6.3,14.6,15.8,15.6
		c10.3,1.1,20.3-0.2,25.1-10.3c4.6-9.6,8.3-20,9.9-30.4c2.2-14,1.9-28.3,3-42.5c0.3-3.9,1.5-8.1,3.5-11.4c2.7-4.3,7.4-5.9,12.5-4.5
		c5,1.4,7.6,5.3,7.6,10.1c-0.1,26.3-0.4,52.7-11.5,77.3c-7,15.5-16.8,29-34.3,32.7c-28.9,6.1-50.2-6.6-56.4-38.2
		c-4.5-23-2.3-46.4-0.2-69.5c1-10.9,8.9-15.8,16.1-10.8c3,2.1,5,6.7,6,10.5c1,4.1,0.2,8.6,0.2,12.9
		C211.7,264.2,211.3,264.2,211,264.2z"/>
	<linearGradient id="SVGID_7_" gradientUnits="userSpaceOnUse" x1="255.0273" y1="109.5893" x2="255.0273" y2="89.5411">
		<stop  offset="1.973119e-007" style="stop-color:#9CC773"/>
		<stop  offset="1" style="stop-color:#EDCD57"/>
	</linearGradient>
	<path fill="url(#SVGID_7_)" d="M255.3,89.6c25.7,0,51.4,0,77,0c8.3,0,12.4,3.3,12.4,9.7c0,6.2-4.5,10.2-12.4,10.2
		c-51.6,0.1-103.2,0.1-154.7,0c-9.6,0-15-7.5-11-14.7c2.4-4.4,6.3-5.2,11-5.2C203.5,89.6,229.4,89.6,255.3,89.6z"/>
	<linearGradient id="SVGID_8_" gradientUnits="userSpaceOnUse" x1="456.7046" y1="119.5266" x2="456.7046" y2="99.6628">
		<stop  offset="1.973119e-007" style="stop-color:#9CC773"/>
		<stop  offset="1" style="stop-color:#EDCD57"/>
	</linearGradient>
	<path fill="url(#SVGID_8_)" d="M457.4,99.7c8.2,0,16.3-0.1,24.5,0c5.8,0.1,9.2,3.5,9.9,9.1c0.7,5-3.4,10.2-9.3,10.4
		c-17.4,0.4-34.8,0.4-52.2-0.1c-5.6-0.1-9-4.1-8.8-10c0.2-5.8,3.7-9.2,9.4-9.4C439.7,99.5,448.6,99.7,457.4,99.7z"/>
	<linearGradient id="SVGID_9_" gradientUnits="userSpaceOnUse" x1="537.0402" y1="119.7074" x2="537.0402" y2="99.5072">
		<stop  offset="1.973119e-007" style="stop-color:#9CC773"/>
		<stop  offset="1" style="stop-color:#EDCD57"/>
	</linearGradient>
	<path fill="url(#SVGID_9_)" d="M537.1,99.6c8.2,0,16.4-0.3,24.5,0.1c6.8,0.3,10.6,4.1,10.6,9.7c0,5.5-3.9,9.9-10.4,10.1
		c-16.6,0.3-33.1,0.3-49.7,0c-6.4-0.1-10.4-4.7-10.3-10.2c0.1-5.6,4-9.3,10.8-9.5C520.8,99.5,529,99.7,537.1,99.6
		C537.1,99.7,537.1,99.6,537.1,99.6z"/>
	<linearGradient id="SVGID_10_" gradientUnits="userSpaceOnUse" x1="617.3801" y1="119.7463" x2="617.3801" y2="99.6064">
		<stop  offset="1.973119e-007" style="stop-color:#9CC773"/>
		<stop  offset="1" style="stop-color:#EDCD57"/>
	</linearGradient>
	<path fill="url(#SVGID_10_)" d="M618,119.6c-8.4,0-16.8,0.4-25.2-0.1c-8.7-0.6-13.4-8.4-9-14.8c1.6-2.3,5.1-4.6,7.7-4.7
		c17-0.5,34-0.5,50.9-0.3c6.5,0.1,10,3.9,10.1,9.4c0.1,5.7-3.5,9.9-10.1,10.2C634.3,119.9,626.2,119.5,618,119.6
		C618,119.6,618,119.6,618,119.6z"/>
</g>
</svg>
