<?xml version="1.0" encoding="utf-8"?>
<!-- Generator: Adobe Illustrator 18.1.1, SVG Export Plug-In . SVG Version: 6.00 Build 0)  -->
<svg version="1.1" id="Layer_1" xmlns="http://www.w3.org/2000/svg" xmlns:xlink="http://www.w3.org/1999/xlink" x="0px" y="0px"
	 viewBox="0 0 792 612" enable-background="new 0 0 792 612" xml:space="preserve">
<g>
	<linearGradient id="SVGID_1_" gradientUnits="userSpaceOnUse" x1="415.2184" y1="490.8712" x2="415.2184" y2="65.0654">
		<stop  offset="0" style="stop-color:#9CC874"/>
		<stop  offset="1" style="stop-color:#EDCD57"/>
	</linearGradient>
	<path fill="url(#SVGID_1_)" d="M132.6,388.3c188.7,0,376.6,0,565.3,0c0-2.7,0-4.9,0-7.2c0-93.5,0-187,0-280.5
		c0-11.5-3-14.4-14.7-14.4c-4.8,0-9.7,0.1-14.5,0c-7.4-0.1-11.4-3.9-11.3-10.6c0.1-6.4,3.9-10.2,11-10.3c7.2-0.1,14.3-0.2,21.5,0
		c15.6,0.4,28.7,13.7,29,29.4c0.2,6.5,0,13.1,0,19.6c0,113.7-0.3,227.4,0.3,341.2c0.1,21.3-15,35.4-35.1,35.4
		c-179.2-0.5-358.4-0.5-537.6,0c-19.9,0.1-35.2-14-35.1-35.3c0.6-118.6,0.6-237.1,0-355.7c-0.1-20.1,14.6-36.5,35-34.6
		c5.2,0.5,10.5,0,15.8,0.1c7,0.2,10.9,3.9,11,10.3c0.1,6.7-3.9,10.5-11.3,10.6c-4.2,0.1-8.4,0-12.6,0c-14.3,0-16.6,2.3-16.6,16.3
		c0,71.8,0,143.6,0,215.4c0,21.1,0,42.1,0,63.2C132.6,383.4,132.6,385.7,132.6,388.3z M132.6,410.2c0,2.7,0,4.9,0,7.2
		c0,12,0,24,0,36c0,13.8,2.4,16.2,16.1,16.2c177.7,0,355.5,0,533.2,0c1.7,0,3.4,0.1,5.1,0c7.2-0.4,10.7-3.9,11-11.1
		c0.2-6.7,0.1-13.5,0.1-20.2c0-9.2,0-18.4,0-28C509.2,410.2,321.3,410.2,132.6,410.2z"/>
	<linearGradient id="SVGID_2_" gradientUnits="userSpaceOnUse" x1="415.0886" y1="369.3929" x2="415.0886" y2="4.3711">
		<stop  offset="0" style="stop-color:#9CC874"/>
		<stop  offset="1" style="stop-color:#EDCD57"/>
	</linearGradient>
	<path fill="url(#SVGID_2_)" d="M213.4,106.5c0,3.5,0,6.2,0,8.9c0,79.4,0,158.8,0,238.2c0,2.3,0.1,4.7-0.1,6.9
		c-0.7,5.4-4.9,8.9-10.5,8.8c-5.6-0.2-9.1-3-10.1-8.5c-0.4-2-0.2-4.2-0.2-6.3c0-105.3,0.3-210.6-0.3-315.9
		c-0.1-19.2,14.5-34.2,34.3-34.2c125.9,0.5,251.9,0.3,377.8,0.3c21.4,0,33.7,12.3,33.7,33.7c0,105.9,0,211.8,0,317.8
		c0,9.5-4,14-11.8,13.2c-5.3-0.5-8.4-3.6-9-8.9c-0.3-2.5-0.1-5-0.1-7.6c0-79.4,0-158.8,0-238.2c0-8.2,0-8.2-8.2-8.2
		c-129.1,0-258.2,0-387.3,0C219.3,106.5,217,106.5,213.4,106.5z M415.2,85.5c65,0,130.1-0.1,195.1,0.1c5.2,0,6.9-1.3,6.8-6.7
		C616.7,65.5,617,52,617,38.5c0-9.5-3.4-12.9-13-12.9c-125.9,0-251.7,0-377.6,0c-9.5,0-12.9,3.4-13,12.9
		c-0.1,13.3,0.3,26.5-0.2,39.8c-0.2,6,1.8,7.3,7.5,7.3C285.6,85.4,350.4,85.5,415.2,85.5z"/>
	<linearGradient id="SVGID_3_" gradientUnits="userSpaceOnUse" x1="415.2472" y1="611.9196" x2="415.2472" y2="509.0939">
		<stop  offset="0" style="stop-color:#9CC874"/>
		<stop  offset="1" style="stop-color:#EDCD57"/>
	</linearGradient>
	<path fill="url(#SVGID_3_)" d="M351.8,550.1c42.5,0,84.5,0,127.2,0c-4.3-6.2-8.3-11.8-12-17.6c-1.5-2.3-2.8-4.7-3.9-7.2
		c-2.9-6.4-1.1-12.3,4.5-15.1c5.4-2.7,10.4-0.4,14.4,5.2c7.3,10.2,15,20.1,22.8,30c3.2,4,7.5,5.4,12.8,5.2
		c5.8-0.3,11.9-0.2,17.5,1.2c13.2,3.5,21.8,15.3,22,29c0.1,6.7,0.2,13.5,0,20.2c-0.2,6.7-4,10.4-10.7,10.8c-1.5,0.1-2.9,0-4.4,0
		c-84.4,0-168.9,0-253.3,0c-12.4,0-15.3-2.8-15.3-15.1c0-5.3-0.1-10.5,0-15.8c0.2-17.1,13.6-31.5,30.5-30.1
		c14.1,1.1,23.3-4.4,30.9-14.8c4.6-6.3,9-12.7,13.1-19.3c4.2-7,9.7-9.5,15.5-6.3c5.6,3.1,7.3,9.1,3.5,15.8
		C362.2,534.3,357,541.9,351.8,550.1z M535.5,590.9c2.1-15.7-1.1-19.5-15.6-19.5c-70.3,0-140.5,0-210.8,0c-2.9,0-6,0.1-8.7,1.1
		c-5,1.7-7.3,8-6.1,15.1c1,5.7,5.7,3.1,8.6,3.1c74.9,0.2,149.8,0.1,224.7,0.1C530.2,590.9,532.7,590.9,535.5,590.9z"/>
	<linearGradient id="SVGID_4_" gradientUnits="userSpaceOnUse" x1="415.1887" y1="349.1031" x2="415.1887" y2="145.9916">
		<stop  offset="0" style="stop-color:#9CC874"/>
		<stop  offset="1" style="stop-color:#EDCD57"/>
	</linearGradient>
	<path fill="url(#SVGID_4_)" d="M374.4,337.2c0.4-1.3,0.9-3.8,1.7-6.2c19.3-58,38.7-116,58-174c0.7-2,1.3-4,2.4-5.8
		c2.7-4.6,7.1-6,12-4.6c5,1.4,7.7,5.1,7.4,10.4c-0.2,2.5-0.9,5-1.7,7.3C435,222,415.7,279.8,396.4,337.7c-3,9.1-6.4,12-12.7,11.3
		C378,348.4,374.2,344.1,374.4,337.2z"/>
	<linearGradient id="SVGID_5_" gradientUnits="userSpaceOnUse" x1="304.2818" y1="309.0528" x2="304.2818" y2="186.4698">
		<stop  offset="0" style="stop-color:#9CC874"/>
		<stop  offset="1" style="stop-color:#EDCD57"/>
	</linearGradient>
	<path fill="url(#SVGID_5_)" d="M290.8,247.6c2.7,2.4,4.8,4.4,7,6.2c14,11.7,28.1,23.4,42.2,35.1c3.5,2.9,6.4,6.2,5.3,11.3
		c-1.9,8.7-10.8,11.6-18,5.7c-15.3-12.5-30.4-25.3-45.6-37.9c-4.7-3.9-9.5-7.7-14-11.7c-6.1-5.5-6.2-12.1,0-17.4
		c19.6-16.6,39.3-33,59.1-49.3c5.5-4.5,11.8-4.1,15.7,0.6c3.9,4.6,3.3,11.1-2.1,15.6c-14.1,12-28.4,23.7-42.6,35.6
		C295.6,243.2,293.5,245.2,290.8,247.6z"/>
	<linearGradient id="SVGID_6_" gradientUnits="userSpaceOnUse" x1="526.2574" y1="308.9543" x2="526.2574" y2="186.4341">
		<stop  offset="0" style="stop-color:#9CC874"/>
		<stop  offset="1" style="stop-color:#EDCD57"/>
	</linearGradient>
	<path fill="url(#SVGID_6_)" d="M539.9,247.5c-16.6-13.8-32.5-27-48.2-40.3c-2.3-2-4.7-4.5-5.7-7.2c-1.6-4.5-0.1-8.9,4.1-11.6
		c4.6-3,9.2-2.4,13.4,1.1c11.8,9.8,23.6,19.6,35.4,29.5c7.4,6.2,14.9,12.4,22.3,18.6c8,6.8,8.1,13.2,0.2,19.9
		c-19,16-38.1,31.9-57.3,47.7c-6.2,5.2-12.4,4.9-16.6-0.3c-4.1-5.1-3.1-10.8,2.9-15.9c14.5-12.2,29.1-24.3,43.7-36.4
		C535.9,251.1,537.6,249.6,539.9,247.5z"/>
	<linearGradient id="SVGID_7_" gradientUnits="userSpaceOnUse" x1="415.8071" y1="450.1764" x2="415.8071" y2="429.1488">
		<stop  offset="0" style="stop-color:#9CC874"/>
		<stop  offset="1" style="stop-color:#EDCD57"/>
	</linearGradient>
	<path fill="url(#SVGID_7_)" d="M415.6,450.1c-6.5,0-13.1,0.1-19.6,0c-6.9-0.1-11.2-4.1-11.3-10.1c-0.2-6.2,4.4-10.7,11.4-10.7
		c13-0.1,26.1-0.1,39.1,0c7.1,0.1,11.7,4.4,11.6,10.6c0,6.3-4.5,10.2-11.7,10.3C428.7,450.2,422.1,450.1,415.6,450.1z"/>
	<linearGradient id="SVGID_8_" gradientUnits="userSpaceOnUse" x1="526.2892" y1="66.0462" x2="526.2892" y2="45.0592">
		<stop  offset="0" style="stop-color:#9CC874"/>
		<stop  offset="1" style="stop-color:#EDCD57"/>
	</linearGradient>
	<path fill="url(#SVGID_8_)" d="M526.1,66c-19.3,0-38.7,0-58,0c-8.7,0-12.8-3.3-12.9-10.3c-0.1-7,4.2-10.7,12.6-10.7
		c39.1,0,78.2,0,117.3,0c7.9,0,12.3,3.8,12.4,10.3c0.1,6.7-4.5,10.6-12.7,10.6C565.2,66.1,545.6,66,526.1,66z"/>
	<linearGradient id="SVGID_9_" gradientUnits="userSpaceOnUse" x1="243.3683" y1="65.9804" x2="243.3683" y2="45.11">
		<stop  offset="0" style="stop-color:#9CC874"/>
		<stop  offset="1" style="stop-color:#EDCD57"/>
	</linearGradient>
	<path fill="url(#SVGID_9_)" d="M253.8,55.7c-0.1,5.8-4.6,10.3-10.4,10.3c-6,0-10.7-4.8-10.4-10.9c0.2-5.8,4.9-10.1,10.7-10
		C249.5,45.3,253.9,49.8,253.8,55.7z"/>
	<linearGradient id="SVGID_10_" gradientUnits="userSpaceOnUse" x1="283.808" y1="65.9864" x2="283.808" y2="45.1136">
		<stop  offset="0" style="stop-color:#9CC874"/>
		<stop  offset="1" style="stop-color:#EDCD57"/>
	</linearGradient>
	<path fill="url(#SVGID_10_)" d="M294.2,55.3c0.1,5.8-4.3,10.5-10.1,10.7c-6.1,0.2-10.9-4.5-10.8-10.5c0.1-5.8,4.5-10.3,10.4-10.3
		C289.6,45.1,294.1,49.5,294.2,55.3z"/>
	<linearGradient id="SVGID_11_" gradientUnits="userSpaceOnUse" x1="324.2396" y1="65.9822" x2="324.2396" y2="45.1024">
		<stop  offset="0" style="stop-color:#9CC874"/>
		<stop  offset="1" style="stop-color:#EDCD57"/>
	</linearGradient>
	<path fill="url(#SVGID_11_)" d="M324.8,45.1c5.8,0.3,10.1,4.9,9.9,10.8c-0.2,5.8-4.8,10.2-10.6,10.1c-6-0.1-10.6-5-10.2-11.1
		C314.2,49.1,318.9,44.9,324.8,45.1z"/>
</g>
</svg>
